<?xml version="1.0" encoding="UTF-8" standalone="no"?>
<svg
   sodipodi:docname="icon_sprites_src.svg"
   inkscape:version="1.2.2 (b0a84865, 2022-12-01)"
   id="svg8"
   version="1.1"
   viewBox="0 0 210 297"
   height="297mm"
   width="210mm"
   xmlns:inkscape="http://www.inkscape.org/namespaces/inkscape"
   xmlns:sodipodi="http://sodipodi.sourceforge.net/DTD/sodipodi-0.dtd"
   xmlns="http://www.w3.org/2000/svg"
   xmlns:svg="http://www.w3.org/2000/svg"
   xmlns:rdf="http://www.w3.org/1999/02/22-rdf-syntax-ns#"
   xmlns:cc="http://creativecommons.org/ns#"
   xmlns:dc="http://purl.org/dc/elements/1.1/">
  <defs
     id="defs2">
    <marker
       inkscape:stockid="TriangleInL"
       orient="auto"
       refY="0.0"
       refX="0.0"
       id="TriangleInL"
       style="overflow:visible"
       inkscape:isstock="true">
      <path
         id="path1120"
         d="M 5.77,0.0 L -2.88,5.0 L -2.88,-5.0 L 5.77,0.0 z "
         style="fill-rule:evenodd;stroke:#000000;stroke-width:1pt;stroke-opacity:1;fill:#000000;fill-opacity:1"
         transform="scale(-0.8)" />
    </marker>
    <marker
       inkscape:stockid="Arrow1Lend"
       orient="auto"
       refY="0.0"
       refX="0.0"
       id="Arrow1Lend"
       style="overflow:visible;"
       inkscape:isstock="true">
      <path
         id="path990"
         d="M 0.0,0.0 L 5.0,-5.0 L -12.5,0.0 L 5.0,5.0 L 0.0,0.0 z "
         style="fill-rule:evenodd;stroke:#000000;stroke-width:1pt;stroke-opacity:1;fill:#000000;fill-opacity:1"
         transform="scale(0.8) rotate(180) translate(12.5,0)" />
    </marker>
    <marker
       inkscape:stockid="Arrow1Lstart"
       orient="auto"
       refY="0.0"
       refX="0.0"
       id="marker1265"
       style="overflow:visible"
       inkscape:isstock="true">
      <path
         id="path1263"
         d="M 0.0,0.0 L 5.0,-5.0 L -12.5,0.0 L 5.0,5.0 L 0.0,0.0 z "
         style="fill-rule:evenodd;stroke:#000000;stroke-width:1pt;stroke-opacity:1;fill:#000000;fill-opacity:1"
         transform="scale(0.8) translate(12.5,0)" />
    </marker>
    <marker
       inkscape:stockid="Arrow1Lstart"
       orient="auto"
       refY="0.0"
       refX="0.0"
       id="Arrow1Lstart"
       style="overflow:visible"
       inkscape:isstock="true">
      <path
         id="path987"
         d="M 0.0,0.0 L 5.0,-5.0 L -12.5,0.0 L 5.0,5.0 L 0.0,0.0 z "
         style="fill-rule:evenodd;stroke:#000000;stroke-width:1pt;stroke-opacity:1;fill:#000000;fill-opacity:1"
         transform="scale(0.8) translate(12.5,0)" />
    </marker>
    <inkscape:path-effect
       effect="powerstroke"
       id="path-effect886"
       is_visible="true"
       lpeversion="1"
       offset_points="0.17443268,0.81406445 | 0.47166204,0.96658367 | 0.999526,3.2209122"
       sort_points="true"
       interpolator_type="CentripetalCatmullRom"
       interpolator_beta="0.2"
       start_linecap_type="zerowidth"
       linejoin_type="round"
       miter_limit="4"
       scale_width="1"
       end_linecap_type="zerowidth" />
  </defs>
  <sodipodi:namedview
     inkscape:window-maximized="0"
     inkscape:window-y="38"
     inkscape:window-x="0"
     inkscape:window-height="842"
     inkscape:window-width="1440"
     showgrid="false"
     inkscape:document-rotation="0"
     inkscape:current-layer="layer1"
     inkscape:document-units="mm"
     inkscape:cy="102.01795"
     inkscape:cx="559.61304"
     inkscape:zoom="2.0192524"
     inkscape:pageshadow="2"
     inkscape:pageopacity="0.0"
     borderopacity="1.0"
     bordercolor="#666666"
     pagecolor="#ffffff"
     id="base"
     inkscape:object-nodes="false"
     inkscape:snap-others="true"
     inkscape:snap-nodes="true"
     inkscape:snap-global="false"
     inkscape:snap-bbox="true"
     inkscape:snap-bbox-midpoints="true"
     inkscape:snap-intersection-paths="true"
     inkscape:showpageshadow="2"
     inkscape:pagecheckerboard="0"
     inkscape:deskcolor="#d1d1d1" />
  <metadata
     id="metadata5">
    <rdf:RDF>
      <cc:Work
         rdf:about="">
        <dc:format>image/svg+xml</dc:format>
        <dc:type
           rdf:resource="http://purl.org/dc/dcmitype/StillImage" />
        <dc:title />
      </cc:Work>
    </rdf:RDF>
  </metadata>
  <g
     id="layer1"
     inkscape:groupmode="layer"
     inkscape:label="Warstwa 1">
    <g
       id="svg-icon-default">
      <rect
         style="fill:none;stroke-width:0.1;stroke-linecap:round;stroke-linejoin:bevel;stroke:#000000"
         id="rect10"
         width="40"
         height="40"
         x="0"
         y="0" />
      <path
         style="fill:#000000;stroke:#000000;stroke-width:0.264583px;stroke-linecap:butt;stroke-linejoin:miter;stroke-opacity:1"
         d="M 5.9658137,6.3371879 7.5250626,17.161283 18.812728,15.193257 17.01744,4.2459911 Z"
         id="path12" />
      <path
         id="path14"
         style="fill:#000000;stroke:none;stroke-width:0.1;stroke-linecap:round;stroke-linejoin:bevel"
         d="m 35.958215,10.228951 a 6.400939,6.400939 0 0 1 -6.400939,6.400939 6.400939,6.400939 0 0 1 -6.400939,-6.400939 6.400939,6.400939 0 0 1 6.400939,-6.4009385 6.400939,6.400939 0 0 1 6.400939,6.4009385 z" />
      <path
         style="fill:#000000;stroke:none;stroke-width:0.26458300000000001px;stroke-linecap:butt;stroke-linejoin:miter;stroke-opacity:1"
         d="M 11.6723,21.838497 2.6356807,33.573553 17.320188,36.46025 Z"
         id="path17" />
      <path
         id="path39"
         style="fill:#ff0000;stroke:none;stroke-width:0.1;stroke-linecap:round;stroke-linejoin:bevel"
         inkscape:transform-center-x="0.60115692"
         inkscape:transform-center-y="0.20129869"
         d="m 27.172613,35.707198 -1.220691,-5.392419 -5.134175,-2.051469 4.751281,-2.827296 0.364516,-5.516829 4.157144,3.645055 5.359458,-1.358119 -2.182025,5.080063 2.947811,4.677465 -5.505709,-0.505403 z" />
    </g>
    <g
       id="svg-icon-new-page">
      <rect
         style="fill:none;stroke:#000000;stroke-width:0.1;stroke-linecap:round;stroke-linejoin:bevel"
         id="rect49"
         width="40"
         height="40"
         x="41"
         y="0" />
      <path
         id="path51"
         style="fill:#000000;stroke:none;stroke-width:0.99999899999999997px;stroke-linecap:butt;stroke-linejoin:miter;stroke-opacity:1"
         d="M 291.64844 10.552734 L 165.9707 11.992188 L 166.93164 137.18945 L 265.74609 137.18945 L 291.16992 104.57227 L 291.64844 10.552734 z M 279.6582 20.626953 L 280.13672 97.376953 L 252.31445 96.416016 L 253.27539 123.75977 L 178.44336 123.2793 L 177.96289 23.503906 L 279.6582 20.626953 z M 220.65625 75.310547 L 188.99609 77.230469 L 188.51758 86.34375 L 222.57422 84.425781 L 220.65625 75.310547 z "
         transform="scale(0.26458333)" />
      <path
         style="fill:#000000;stroke:none;stroke-width:0.26458300000000001px;stroke-linecap:butt;stroke-linejoin:miter;stroke-opacity:1"
         d="M 49.751487,8.6303598 V 11.168701 L 71.200469,10.407198 70.946634,7.9957746 Z"
         id="path55" />
      <path
         style="fill:#ff0000;stroke:none;stroke-width:0.26458300000000001px;stroke-linecap:butt;stroke-linejoin:miter;stroke-opacity:1"
         d="M 70.185131,17.006885 49.878403,17.133803 50.132236,14.21471 69.931298,14.087793 Z"
         id="path57" />
    </g>
    <g
       id="svg-icon-delete-stitch">
      <rect
         style="fill:none;stroke:#000000;stroke-width:0.1;stroke-linecap:butt;stroke-linejoin:miter;stroke-miterlimit:4;stroke-dasharray:none"
         id="rect1443"
         width="40"
         height="40"
         x="166"
         y="0" />
      <path
         id="path1480"
         style="color:#000000;font-style:normal;font-variant:normal;font-weight:normal;font-stretch:normal;font-size:medium;line-height:normal;font-family:sans-serif;font-variant-ligatures:normal;font-variant-position:normal;font-variant-caps:normal;font-variant-numeric:normal;font-variant-alternates:normal;font-variant-east-asian:normal;font-feature-settings:normal;font-variation-settings:normal;text-indent:0;text-align:start;text-decoration:none;text-decoration-line:none;text-decoration-style:solid;text-decoration-color:#000000;letter-spacing:normal;word-spacing:normal;text-transform:none;writing-mode:lr-tb;direction:ltr;text-orientation:mixed;dominant-baseline:auto;baseline-shift:baseline;text-anchor:start;white-space:normal;shape-padding:0;shape-margin:0;inline-size:0;clip-rule:nonzero;display:inline;overflow:visible;visibility:visible;isolation:auto;mix-blend-mode:normal;color-interpolation:sRGB;color-interpolation-filters:linearRGB;solid-color:#000000;solid-opacity:1;vector-effect:none;fill:#000000;fill-opacity:1;fill-rule:nonzero;stroke:none;stroke-width:4.66274;stroke-linecap:round;stroke-linejoin:bevel;stroke-miterlimit:4;stroke-dasharray:none;stroke-dashoffset:0;stroke-opacity:1;color-rendering:auto;image-rendering:auto;shape-rendering:auto;text-rendering:auto;enable-background:accumulate;stop-color:#000000"
         d="m 185.47149,7.621713 c -6.44472,0.00239 -11.71807,5.278865 -11.71645,11.72359 0.001,6.444721 5.27757,11.71748 11.7223,11.715143 0.94166,-3.5e-4 1.85795,-0.114093 2.73678,-0.326829 a 8.6253798,8.6253798 0 0 1 -0.47692,-4.703601 c -0.70886,0.23648 -1.46834,0.366176 -2.26116,0.366464 -3.92478,0.0014 -7.05603,-3.127687 -7.05703,-7.052477 -9.8e-4,-3.924789 3.12899,-7.059498 7.05378,-7.060923 3.92478,-0.0014 7.05863,3.130936 7.05963,7.055725 3e-5,0.14441 -0.005,0.287345 -0.0129,0.429491 a 8.6253798,8.6253798 0 0 1 4.66851,-0.788807 C 196.99583,12.69859 191.79656,7.6194221 185.47154,7.621713 Z" />
      <path
         d="m 199.01033,21.421962 -2.78595,2.785957 -2.78596,-2.785954 -3.3428,3.342802 2.78595,2.785956 -2.78595,2.785957 3.3428,3.342808 2.78596,-2.785958 2.78595,2.785954 3.3428,-3.342803 -2.78595,-2.785955 2.78595,-2.785957 z"
         style="fill:#ff0000;stroke:none;stroke-width:5.84348;stroke-linecap:butt;stroke-linejoin:round;stroke-miterlimit:4;stroke-dasharray:none;stroke-dashoffset:0"
         id="path1498" />
    </g>
    <g
       id="g941">
      <rect
         style="fill:none;stroke:#000000;stroke-width:0.1;stroke-linecap:round;stroke-linejoin:bevel"
         width="40"
         height="40"
         x="82"
         y="0"
         id="rect926" />
      <path
         style="color:#000000;font-style:normal;font-variant:normal;font-weight:normal;font-stretch:normal;font-size:medium;line-height:normal;font-family:sans-serif;font-variant-ligatures:normal;font-variant-position:normal;font-variant-caps:normal;font-variant-numeric:normal;font-variant-alternates:normal;font-variant-east-asian:normal;font-feature-settings:normal;font-variation-settings:normal;text-indent:0;text-align:start;text-decoration:none;text-decoration-line:none;text-decoration-style:solid;text-decoration-color:#000000;letter-spacing:normal;word-spacing:normal;text-transform:none;writing-mode:lr-tb;direction:ltr;text-orientation:mixed;dominant-baseline:auto;baseline-shift:baseline;text-anchor:start;white-space:normal;shape-padding:0;shape-margin:0;inline-size:0;clip-rule:nonzero;display:inline;overflow:visible;visibility:visible;isolation:auto;mix-blend-mode:normal;color-interpolation:sRGB;color-interpolation-filters:linearRGB;solid-color:#000000;solid-opacity:1;vector-effect:none;fill:#000000;fill-opacity:1;fill-rule:nonzero;stroke:none;stroke-width:3.95154;stroke-linecap:round;stroke-linejoin:bevel;stroke-miterlimit:4;stroke-dasharray:none;stroke-dashoffset:0;stroke-opacity:1;color-rendering:auto;image-rendering:auto;shape-rendering:auto;text-rendering:auto;enable-background:accumulate;stop-color:#000000"
         d="m 92.867772,19.793548 c -5.461713,0.002 -9.930553,4.473569 -9.929177,9.935282 0.0014,5.461711 4.47247,9.930058 9.934181,9.928078 5.46171,-0.002 9.930554,-4.473574 9.929174,-9.935282 -9.8e-4,-5.461711 -4.472467,-9.930057 -9.934178,-9.928078 z m 9.77e-4,3.950308 c 3.326144,-0.0012 5.982041,2.653059 5.982878,5.979203 8.38e-4,3.326141 -2.653721,5.980051 -5.979866,5.981259 -3.326144,0.0012 -5.979757,-2.650778 -5.980596,-5.976921 -8.37e-4,-3.326144 2.651439,-5.982335 5.977584,-5.983541 z"
         id="path983" />
      <path
         id="path977"
         style="color:#000000;font-style:normal;font-variant:normal;font-weight:normal;font-stretch:normal;font-size:medium;line-height:normal;font-family:sans-serif;font-variant-ligatures:normal;font-variant-position:normal;font-variant-caps:normal;font-variant-numeric:normal;font-variant-alternates:normal;font-variant-east-asian:normal;font-feature-settings:normal;font-variation-settings:normal;text-indent:0;text-align:start;text-decoration:none;text-decoration-line:none;text-decoration-style:solid;text-decoration-color:#000000;letter-spacing:normal;word-spacing:normal;text-transform:none;writing-mode:lr-tb;direction:ltr;text-orientation:mixed;dominant-baseline:auto;baseline-shift:baseline;text-anchor:start;white-space:normal;shape-padding:0;shape-margin:0;inline-size:0;clip-rule:nonzero;display:inline;overflow:visible;visibility:visible;isolation:auto;mix-blend-mode:normal;color-interpolation:sRGB;color-interpolation-filters:linearRGB;solid-color:#000000;solid-opacity:1;vector-effect:none;fill:#000000;fill-opacity:1;fill-rule:nonzero;stroke:none;stroke-width:4.2242;stroke-linecap:round;stroke-linejoin:miter;stroke-miterlimit:4;stroke-dasharray:none;stroke-dashoffset:0;stroke-opacity:1;color-rendering:auto;image-rendering:auto;shape-rendering:auto;text-rendering:auto;enable-background:accumulate;stop-color:#000000"
         d="m 104.90217,0.48251722 a 2.1121001,2.1121001 0 0 0 -0.0175,6.0394e-4 2.1121001,2.1121001 0 0 0 -1.43585,0.61648404 2.1121001,2.1121001 0 0 0 0,2.9870207 l 5.74219,5.7415773 -5.74219,5.7421768 a 2.1121001,2.1121001 0 0 0 0,2.987022 2.1121001,2.1121001 0 0 0 2.98763,0 l 5.74158,-5.741575 5.74157,5.741575 a 2.1121001,2.1121001 0 0 0 2.98762,0 2.1121001,2.1121001 0 0 0 0,-2.987022 l -5.74218,-5.7421768 5.74218,-5.7415773 a 2.1121001,2.1121001 0 0 0 0,-2.9870207 2.1121001,2.1121001 0 0 0 -1.55177,-0.61648404 2.1121001,2.1121001 0 0 0 -1.43585,0.61648404 l -5.74157,5.7415767 -5.74158,-5.7415767 a 2.1121001,2.1121001 0 0 0 -1.53427,-0.61708798 z" />
      <path
         style="color:#000000;fill:#ff0000;stroke-width:0.976928;stroke-linecap:round;-inkscape-stroke:none"
         d="m 112.62051,25.830032 c -0.13911,2.502985 -0.63198,4.618021 -1.90539,6.077665 -1.89845,2.176074 -4.7321,3.128355 -6.62654,3.875302 4.73644,1.977223 8.70623,1.303851 11.07532,-0.627118 2.92493,-2.384008 3.46569,-5.875022 3.56331,-8.689829 l -3.54239,1.963469 z"
         id="path1351"
         sodipodi:nodetypes="cscsccc" />
      <path
         sodipodi:nodetypes="cscsccc"
         id="path1500"
         d="m 90.990587,15.173847 c 0.139102,-2.502994 0.63197,-4.618021 1.905386,-6.0776739 C 94.79442,6.9201067 97.628068,5.9678223 99.522518,5.2208782 94.786065,3.2436561 90.81628,3.917024 88.447188,5.8479878 85.522263,8.2320002 84.9815,11.723009 84.883877,14.537822 l 3.542396,-1.96347 z"
         style="color:#000000;fill:#ff0000;stroke-width:0.976928;stroke-linecap:round;-inkscape-stroke:none" />
    </g>
    <g
       id="g975">
      <rect
         y="42"
         x="41.5"
         height="40"
         width="40"
         id="rect1514-8"
         style="fill:none;stroke:#000000;stroke-width:0.1;stroke-linecap:butt;stroke-linejoin:bevel;stroke-miterlimit:4;stroke-dasharray:none;stroke-dashoffset:0" />
      <path
         id="path1516-7"
         style="stroke-width:0.123551;stroke-linejoin:bevel"
         d="m 49.482697,77.949747 a 3.4672425,3.4672425 0 0 1 -3.467244,3.467243 3.4672425,3.4672425 0 0 1 -3.467242,-3.467243 3.4672425,3.4672425 0 0 1 3.467242,-3.467242 3.4672425,3.4672425 0 0 1 3.467244,3.467242 z" />
      <path
         id="circle1518-1"
         style="fill:#ff0000;stroke-width:0.123551;stroke-linejoin:bevel"
         d="m 59.88442,75.334588 a 3.4672425,3.4672425 0 0 1 -3.467242,3.467242 3.4672425,3.4672425 0 0 1 -3.467243,-3.467242 3.4672425,3.4672425 0 0 1 3.467243,-3.467243 3.4672425,3.4672425 0 0 1 3.467242,3.467243 z" />
      <path
         id="circle1520-5"
         style="stroke-width:0.123551;stroke-linejoin:bevel"
         d="m 70.286149,75.334588 a 3.4672425,3.4672425 0 0 1 -3.467243,3.467242 3.4672425,3.4672425 0 0 1 -3.467242,-3.467242 3.4672425,3.4672425 0 0 1 3.467242,-3.467243 3.4672425,3.4672425 0 0 1 3.467243,3.467243 z" />
      <path
         id="circle1522-5"
         style="stroke-width:0.123551;stroke-linejoin:bevel"
         d="m 80.687878,77.949747 a 3.4672425,3.4672425 0 0 1 -3.467243,3.467243 3.4672425,3.4672425 0 0 1 -3.467242,-3.467243 3.4672425,3.4672425 0 0 1 3.467242,-3.467242 3.4672425,3.4672425 0 0 1 3.467243,3.467242 z" />
      <path
         id="path282"
         style="color:#000000;fill:#000000;stroke-width:1.23551;stroke-linecap:round;-inkscape-stroke:none"
         d="m 52.868535,42.658324 a 2.1621386,2.1621386 0 0 0 -2.162486,2.162486 2.1621386,2.1621386 0 0 0 2.162486,2.161847 h 5.356094 l -3.065915,19.657102 a 2.1621386,2.1621386 0 0 0 1.802389,2.470864 2.1621386,2.1621386 0 0 0 2.468312,-1.80239 l 3.172539,-20.325576 h 5.980513 a 2.1621386,2.1621386 0 0 0 2.162487,-2.161847 2.1621386,2.1621386 0 0 0 -2.162487,-2.162486 z" />
      <path
         sodipodi:nodetypes="cccc"
         id="path960"
         d="m 63.439077,60.893588 -1.408047,7.88253 8.923195,-3.941265 z"
         style="fill:#ff0000;stroke:none;stroke-width:0.452383px;stroke-linecap:butt;stroke-linejoin:miter;stroke-opacity:1" />
      <path
         style="fill:#ff0000;stroke:none;stroke-width:0.452383px;stroke-linecap:butt;stroke-linejoin:miter;stroke-opacity:1"
         d="m 52.03637,68.776118 1.408046,-7.88253 -8.923195,3.941264 z"
         id="path964"
         sodipodi:nodetypes="cccc" />
    </g>
    <rect
       style="fill:none;stroke:#000000;stroke-width:0.1;stroke-linecap:butt;stroke-linejoin:bevel;stroke-miterlimit:4;stroke-dasharray:none;stroke-dashoffset:0"
       id="rect966"
       width="40"
       height="40"
       x="83.5"
       y="42" />
    <path
       d="m 101.24656,43.172502 v 3.881682 h -3.88167 v 4.657534 h 3.88167 v 3.88168 h 4.65754 v -3.88168 h 3.88168 v -4.657534 h -3.88168 v -3.881682 z"
       style="fill:#ff0000;stroke:none;stroke-width:5.75707;stroke-linecap:butt;stroke-linejoin:round;stroke-miterlimit:4;stroke-dasharray:none;stroke-dashoffset:0"
       id="path974" />
    <path
       id="path360"
       style="color:#000000;fill:#000000;stroke-width:1.23877;stroke-linecap:round;-inkscape-stroke:none"
       d="m 97.112214,66.35277 a 2.1678417,2.1678417 0 0 0 -0.518522,0.0621 l -10.580406,2.588764 a 2.1678417,2.1678417 0 0 0 -1.589494,2.620136 2.1678417,2.1678417 0 0 0 2.620135,1.592054 l 2.897322,-0.708647 1.699599,7.081984 a 2.1678417,2.1678417 0 0 0 2.615654,1.601657 2.1678417,2.1678417 0 0 0 1.601656,-2.613094 l -1.70472,-7.101189 3.470896,-0.84948 a 2.1678417,2.1678417 0 0 0 1.589494,-2.620136 2.1678417,2.1678417 0 0 0 -2.101614,-1.654149 z" />
    <path
       id="path416"
       style="color:#000000;fill:#ff0000;stroke-width:1.23877;stroke-linecap:round;-inkscape-stroke:none"
       d="m 110.03749,66.353353 a 2.1678417,2.1678417 0 0 0 -2.10161,1.651589 2.1678417,2.1678417 0 0 0 1.59205,2.622695 l 3.47025,0.848841 -1.70407,7.101828 a 2.1678417,2.1678417 0 0 0 1.60165,2.613094 2.1678417,2.1678417 0 0 0 2.61309,-1.601656 l 1.6996,-7.083905 2.89733,0.708647 a 2.1678417,2.1678417 0 0 0 2.62269,-1.589494 2.1678417,2.1678417 0 0 0 -1.59205,-2.620776 l -10.5804,-2.588768 a 2.1678417,2.1678417 0 0 0 -0.51853,-0.0621 z" />
    <path
       sodipodi:nodetypes="cccc"
       id="path995"
       d="m 98.280234,58.577336 h 10.426046 l -5.21303,9.733047 z"
       style="fill:#000000;stroke:none;stroke-width:0.44184px;stroke-linecap:butt;stroke-linejoin:miter;stroke-opacity:1" />
    <rect
       style="fill:none;stroke:#000000;stroke-width:0.1;stroke-linecap:round;stroke-linejoin:bevel;stroke-miterlimit:4;stroke-dasharray:none"
       id="rect920"
       width="40"
       height="40"
       x="124"
       y="0" />
    <path
       id="path1461"
       style="color:#000000;fill:#ff0000;stroke-width:0.984282;stroke-linecap:round;-inkscape-stroke:none"
       d="m 148.59634,10.931651 c -1.64843,6.12e-4 -3.21306,0.378905 -4.61185,1.051871 a 12.973336,12.973336 0 0 1 2.75327,3.480128 c 0.58783,-0.174235 1.21184,-0.267819 1.85959,-0.268055 0.46072,-1.61e-4 0.90944,0.04814 1.3418,0.137842 a 7.8906632,7.8906632 0 0 1 -0.21261,-1.80873 7.8906632,7.8906632 0 0 1 0.40538,-2.482681 c -0.50196,-0.07266 -1.01432,-0.110559 -1.53558,-0.110375 z m 6.42414,10.038046 c 0.0231,0.223421 0.035,0.45063 0.0351,0.680562 9.1e-4,3.590461 -2.8647,6.454886 -6.45516,6.456191 -0.6485,2.28e-4 -1.27307,-0.09349 -1.86164,-0.267546 a 12.973336,12.973336 0 0 1 -2.75582,3.483687 c 1.4007,0.673656 2.96775,1.051453 4.61847,1.050855 5.89573,-0.0022 10.72009,-4.82948 10.7186,-10.725222 -3e-5,-0.140474 -0.004,-0.279912 -0.009,-0.41912 a 7.8906632,7.8906632 0 0 1 -1.69326,0.186162 7.8906632,7.8906632 0 0 1 -2.59714,-0.445569 z" />
    <path
       id="rect1465"
       style="fill:#ff0000;stroke:none;stroke-width:5.34572;stroke-linecap:butt;stroke-linejoin:round;stroke-miterlimit:4;stroke-dasharray:none;stroke-dashoffset:0"
       d="m 155.4552,7.7576795 v 3.6043325 h -3.60433 v 4.32475 h 3.60433 v 3.604332 h 4.32476 v -3.604332 h 3.60433 v -4.32475 h -3.60433 V 7.7576795 Z" />
    <path
       id="path1478"
       d="m 135.34228,10.931425 c -5.89576,0.0022 -10.71974,4.829088 -10.71826,10.724852 9.9e-4,5.895761 4.8279,10.719213 10.72367,10.717075 5.89575,-0.0022 10.71974,-4.829094 10.71826,-10.724853 -9.9e-4,-5.89576 -4.8279,-10.71921 -10.72367,-10.717074 z m 9.8e-4,4.264241 c 3.59047,-0.0013 6.45744,2.863904 6.45835,6.454381 9.1e-4,3.590473 -2.86463,6.455292 -6.4551,6.456597 -3.59047,0.0013 -6.45497,-2.861439 -6.45588,-6.451915 -9e-4,-3.590477 2.86216,-6.457759 6.45263,-6.459063 z"
       style="color:#000000;font-style:normal;font-variant:normal;font-weight:normal;font-stretch:normal;font-size:medium;line-height:normal;font-family:sans-serif;font-variant-ligatures:normal;font-variant-position:normal;font-variant-caps:normal;font-variant-numeric:normal;font-variant-alternates:normal;font-variant-east-asian:normal;font-feature-settings:normal;font-variation-settings:normal;text-indent:0;text-align:start;text-decoration:none;text-decoration-line:none;text-decoration-style:solid;text-decoration-color:#000000;letter-spacing:normal;word-spacing:normal;text-transform:none;writing-mode:lr-tb;direction:ltr;text-orientation:mixed;dominant-baseline:auto;baseline-shift:baseline;text-anchor:start;white-space:normal;shape-padding:0;shape-margin:0;inline-size:0;clip-rule:nonzero;display:inline;overflow:visible;visibility:visible;isolation:auto;mix-blend-mode:normal;color-interpolation:sRGB;color-interpolation-filters:linearRGB;solid-color:#000000;solid-opacity:1;vector-effect:none;fill:#000000;fill-opacity:1;fill-rule:nonzero;stroke:none;stroke-width:4.26556;stroke-linecap:round;stroke-linejoin:bevel;stroke-miterlimit:4;stroke-dasharray:none;stroke-dashoffset:0;stroke-opacity:1;color-rendering:auto;image-rendering:auto;shape-rendering:auto;text-rendering:auto;enable-background:accumulate;stop-color:#000000" />
  </g>
</svg>
