<?xml version="1.0" encoding="UTF-8" standalone="no"?>
<svg
   sodipodi:docname="icon_sprites_src.svg"
   inkscape:version="1.2.2 (b0a84865, 2022-12-01)"
   id="svg8"
   version="1.1"
   viewBox="0 0 210 297"
   height="297mm"
   width="210mm"
   xml:space="preserve"
   xmlns:inkscape="http://www.inkscape.org/namespaces/inkscape"
   xmlns:sodipodi="http://sodipodi.sourceforge.net/DTD/sodipodi-0.dtd"
   xmlns="http://www.w3.org/2000/svg"
   xmlns:svg="http://www.w3.org/2000/svg"
   xmlns:rdf="http://www.w3.org/1999/02/22-rdf-syntax-ns#"
   xmlns:cc="http://creativecommons.org/ns#"
   xmlns:dc="http://purl.org/dc/elements/1.1/"><defs
     id="defs2"><marker
       inkscape:stockid="TriangleInL"
       orient="auto"
       refY="0.0"
       refX="0.0"
       id="TriangleInL"
       style="overflow:visible"
       inkscape:isstock="true"><path
         id="path1120"
         d="M 5.77,0.0 L -2.88,5.0 L -2.88,-5.0 L 5.77,0.0 z "
         style="fill-rule:evenodd;stroke:#000000;stroke-width:1pt;stroke-opacity:1;fill:#000000;fill-opacity:1"
         transform="scale(-0.8)" /></marker><marker
       inkscape:stockid="Arrow1Lend"
       orient="auto"
       refY="0.0"
       refX="0.0"
       id="Arrow1Lend"
       style="overflow:visible;"
       inkscape:isstock="true"><path
         id="path990"
         d="M 0.0,0.0 L 5.0,-5.0 L -12.5,0.0 L 5.0,5.0 L 0.0,0.0 z "
         style="fill-rule:evenodd;stroke:#000000;stroke-width:1pt;stroke-opacity:1;fill:#000000;fill-opacity:1"
         transform="scale(0.8) rotate(180) translate(12.5,0)" /></marker><marker
       inkscape:stockid="Arrow1Lstart"
       orient="auto"
       refY="0.0"
       refX="0.0"
       id="marker1265"
       style="overflow:visible"
       inkscape:isstock="true"><path
         id="path1263"
         d="M 0.0,0.0 L 5.0,-5.0 L -12.5,0.0 L 5.0,5.0 L 0.0,0.0 z "
         style="fill-rule:evenodd;stroke:#000000;stroke-width:1pt;stroke-opacity:1;fill:#000000;fill-opacity:1"
         transform="scale(0.8) translate(12.5,0)" /></marker><marker
       inkscape:stockid="Arrow1Lstart"
       orient="auto"
       refY="0.0"
       refX="0.0"
       id="Arrow1Lstart"
       style="overflow:visible"
       inkscape:isstock="true"><path
         id="path987"
         d="M 0.0,0.0 L 5.0,-5.0 L -12.5,0.0 L 5.0,5.0 L 0.0,0.0 z "
         style="fill-rule:evenodd;stroke:#000000;stroke-width:1pt;stroke-opacity:1;fill:#000000;fill-opacity:1"
         transform="scale(0.8) translate(12.5,0)" /></marker><inkscape:path-effect
       effect="powerstroke"
       id="path-effect886"
       is_visible="true"
       lpeversion="1"
       offset_points="0.17443268,0.81406445 | 0.47166204,0.96658367 | 0.999526,3.2209122"
       sort_points="true"
       interpolator_type="CentripetalCatmullRom"
       interpolator_beta="0.2"
       start_linecap_type="zerowidth"
       linejoin_type="round"
       miter_limit="4"
       scale_width="1"
       end_linecap_type="zerowidth" /></defs><sodipodi:namedview
     inkscape:window-maximized="0"
     inkscape:window-y="38"
     inkscape:window-x="0"
     inkscape:window-height="842"
     inkscape:window-width="1440"
     showgrid="false"
     inkscape:document-rotation="0"
     inkscape:current-layer="layer1"
     inkscape:document-units="mm"
     inkscape:cy="333.34534"
     inkscape:cx="251.74518"
     inkscape:zoom="1.4399481"
     inkscape:pageshadow="2"
     inkscape:pageopacity="0.0"
     borderopacity="1.0"
     bordercolor="#666666"
     pagecolor="#ffffff"
     id="base"
     inkscape:object-nodes="false"
     inkscape:snap-others="true"
     inkscape:snap-nodes="true"
     inkscape:snap-global="false"
     inkscape:snap-bbox="true"
     inkscape:snap-bbox-midpoints="true"
     inkscape:snap-intersection-paths="true"
     inkscape:showpageshadow="2"
     inkscape:pagecheckerboard="0"
     inkscape:deskcolor="#d1d1d1" /><metadata
     id="metadata5"><rdf:RDF><cc:Work
         rdf:about=""><dc:format>image/svg+xml</dc:format><dc:type
           rdf:resource="http://purl.org/dc/dcmitype/StillImage" /><dc:title /></cc:Work></rdf:RDF></metadata><g
     id="layer1"
     inkscape:groupmode="layer"
     inkscape:label="Warstwa 1"><g
       id="svg-icon-default"
       transform="translate(1.086262)"><rect
         style="fill:none;stroke:#000000;stroke-width:0.1;stroke-linecap:round;stroke-linejoin:bevel"
         id="rect10"
         width="40"
         height="40"
         x="0"
         y="0" /><path
         style="fill:#000000;stroke:#000000;stroke-width:0.264583px;stroke-linecap:butt;stroke-linejoin:miter;stroke-opacity:1"
         d="M 5.9658137,6.3371879 7.5250626,17.161283 18.812728,15.193257 17.01744,4.2459911 Z"
         id="path12" /><path
         id="path14"
         style="fill:#000000;stroke:none;stroke-width:0.1;stroke-linecap:round;stroke-linejoin:bevel"
         d="m 35.958215,10.228951 a 6.400939,6.400939 0 0 1 -6.400939,6.400939 6.400939,6.400939 0 0 1 -6.400939,-6.400939 6.400939,6.400939 0 0 1 6.400939,-6.4009385 6.400939,6.400939 0 0 1 6.400939,6.4009385 z" /><path
         style="fill:#000000;stroke:none;stroke-width:0.264583px;stroke-linecap:butt;stroke-linejoin:miter;stroke-opacity:1"
         d="M 11.6723,21.838497 2.6356807,33.573553 17.320188,36.46025 Z"
         id="path17" /><path
         id="path39"
         style="fill:#ff0000;stroke:none;stroke-width:0.1;stroke-linecap:round;stroke-linejoin:bevel"
         inkscape:transform-center-x="0.60115692"
         inkscape:transform-center-y="0.20129869"
         d="m 27.172613,35.707198 -1.220691,-5.392419 -5.134175,-2.051469 4.751281,-2.827296 0.364516,-5.516829 4.157144,3.645055 5.359458,-1.358119 -2.182025,5.080063 2.947811,4.677465 -5.505709,-0.505403 z" /></g><g
       id="svg-icon-delete-stitch"
       transform="translate(-80.866682,42.231024)"><rect
         style="fill:none;stroke:#000000;stroke-width:0.1;stroke-linecap:butt;stroke-linejoin:miter;stroke-miterlimit:4;stroke-dasharray:none"
         id="rect1443"
         width="40"
         height="40"
         x="166"
         y="0" /><path
         id="path1480"
         style="color:#000000;font-style:normal;font-variant:normal;font-weight:normal;font-stretch:normal;font-size:medium;line-height:normal;font-family:sans-serif;font-variant-ligatures:normal;font-variant-position:normal;font-variant-caps:normal;font-variant-numeric:normal;font-variant-alternates:normal;font-variant-east-asian:normal;font-feature-settings:normal;font-variation-settings:normal;text-indent:0;text-align:start;text-decoration:none;text-decoration-line:none;text-decoration-style:solid;text-decoration-color:#000000;letter-spacing:normal;word-spacing:normal;text-transform:none;writing-mode:lr-tb;direction:ltr;text-orientation:mixed;dominant-baseline:auto;baseline-shift:baseline;text-anchor:start;white-space:normal;shape-padding:0;shape-margin:0;inline-size:0;clip-rule:nonzero;display:inline;overflow:visible;visibility:visible;isolation:auto;mix-blend-mode:normal;color-interpolation:sRGB;color-interpolation-filters:linearRGB;solid-color:#000000;solid-opacity:1;vector-effect:none;fill:#000000;fill-opacity:1;fill-rule:nonzero;stroke:none;stroke-width:4.66274;stroke-linecap:round;stroke-linejoin:bevel;stroke-miterlimit:4;stroke-dasharray:none;stroke-dashoffset:0;stroke-opacity:1;color-rendering:auto;image-rendering:auto;shape-rendering:auto;text-rendering:auto;enable-background:accumulate;stop-color:#000000"
         d="m 185.47149,7.621713 c -6.44472,0.00239 -11.71807,5.278865 -11.71645,11.72359 0.001,6.444721 5.27757,11.71748 11.7223,11.715143 0.94166,-3.5e-4 1.85795,-0.114093 2.73678,-0.326829 a 8.6253798,8.6253798 0 0 1 -0.47692,-4.703601 c -0.70886,0.23648 -1.46834,0.366176 -2.26116,0.366464 -3.92478,0.0014 -7.05603,-3.127687 -7.05703,-7.052477 -9.8e-4,-3.924789 3.12899,-7.059498 7.05378,-7.060923 3.92478,-0.0014 7.05863,3.130936 7.05963,7.055725 3e-5,0.14441 -0.005,0.287345 -0.0129,0.429491 a 8.6253798,8.6253798 0 0 1 4.66851,-0.788807 C 196.99583,12.69859 191.79656,7.6194221 185.47154,7.621713 Z" /><path
         d="m 199.01033,21.421962 -2.78595,2.785957 -2.78596,-2.785954 -3.3428,3.342802 2.78595,2.785956 -2.78595,2.785957 3.3428,3.342808 2.78596,-2.785958 2.78595,2.785954 3.3428,-3.342803 -2.78595,-2.785955 2.78595,-2.785957 z"
         style="fill:#ff0000;stroke:none;stroke-width:5.84348;stroke-linecap:butt;stroke-linejoin:round;stroke-miterlimit:4;stroke-dasharray:none;stroke-dashoffset:0"
         id="path1498" /></g><g
       id="svg-icon-change-stitch-type"
       transform="translate(-80.913738,42.231024)"><rect
         style="fill:none;stroke:#000000;stroke-width:0.1;stroke-linecap:round;stroke-linejoin:bevel"
         width="40"
         height="40"
         x="82"
         y="0"
         id="rect926" /><path
         style="color:#000000;font-style:normal;font-variant:normal;font-weight:normal;font-stretch:normal;font-size:medium;line-height:normal;font-family:sans-serif;font-variant-ligatures:normal;font-variant-position:normal;font-variant-caps:normal;font-variant-numeric:normal;font-variant-alternates:normal;font-variant-east-asian:normal;font-feature-settings:normal;font-variation-settings:normal;text-indent:0;text-align:start;text-decoration:none;text-decoration-line:none;text-decoration-style:solid;text-decoration-color:#000000;letter-spacing:normal;word-spacing:normal;text-transform:none;writing-mode:lr-tb;direction:ltr;text-orientation:mixed;dominant-baseline:auto;baseline-shift:baseline;text-anchor:start;white-space:normal;shape-padding:0;shape-margin:0;inline-size:0;clip-rule:nonzero;display:inline;overflow:visible;visibility:visible;isolation:auto;mix-blend-mode:normal;color-interpolation:sRGB;color-interpolation-filters:linearRGB;solid-color:#000000;solid-opacity:1;vector-effect:none;fill:#000000;fill-opacity:1;fill-rule:nonzero;stroke:none;stroke-width:3.95154;stroke-linecap:round;stroke-linejoin:bevel;stroke-miterlimit:4;stroke-dasharray:none;stroke-dashoffset:0;stroke-opacity:1;color-rendering:auto;image-rendering:auto;shape-rendering:auto;text-rendering:auto;enable-background:accumulate;stop-color:#000000"
         d="m 92.867772,19.793548 c -5.461713,0.002 -9.930553,4.473569 -9.929177,9.935282 0.0014,5.461711 4.47247,9.930058 9.934181,9.928078 5.46171,-0.002 9.930554,-4.473574 9.929174,-9.935282 -9.8e-4,-5.461711 -4.472467,-9.930057 -9.934178,-9.928078 z m 9.77e-4,3.950308 c 3.326144,-0.0012 5.982041,2.653059 5.982878,5.979203 8.38e-4,3.326141 -2.653721,5.980051 -5.979866,5.981259 -3.326144,0.0012 -5.979757,-2.650778 -5.980596,-5.976921 -8.37e-4,-3.326144 2.651439,-5.982335 5.977584,-5.983541 z"
         id="path983" /><path
         id="path977"
         style="color:#000000;font-style:normal;font-variant:normal;font-weight:normal;font-stretch:normal;font-size:medium;line-height:normal;font-family:sans-serif;font-variant-ligatures:normal;font-variant-position:normal;font-variant-caps:normal;font-variant-numeric:normal;font-variant-alternates:normal;font-variant-east-asian:normal;font-feature-settings:normal;font-variation-settings:normal;text-indent:0;text-align:start;text-decoration:none;text-decoration-line:none;text-decoration-style:solid;text-decoration-color:#000000;letter-spacing:normal;word-spacing:normal;text-transform:none;writing-mode:lr-tb;direction:ltr;text-orientation:mixed;dominant-baseline:auto;baseline-shift:baseline;text-anchor:start;white-space:normal;shape-padding:0;shape-margin:0;inline-size:0;clip-rule:nonzero;display:inline;overflow:visible;visibility:visible;isolation:auto;mix-blend-mode:normal;color-interpolation:sRGB;color-interpolation-filters:linearRGB;solid-color:#000000;solid-opacity:1;vector-effect:none;fill:#000000;fill-opacity:1;fill-rule:nonzero;stroke:none;stroke-width:4.2242;stroke-linecap:round;stroke-linejoin:miter;stroke-miterlimit:4;stroke-dasharray:none;stroke-dashoffset:0;stroke-opacity:1;color-rendering:auto;image-rendering:auto;shape-rendering:auto;text-rendering:auto;enable-background:accumulate;stop-color:#000000"
         d="m 104.90217,0.48251722 a 2.1121001,2.1121001 0 0 0 -0.0175,6.0394e-4 2.1121001,2.1121001 0 0 0 -1.43585,0.61648404 2.1121001,2.1121001 0 0 0 0,2.9870207 l 5.74219,5.7415773 -5.74219,5.7421768 a 2.1121001,2.1121001 0 0 0 0,2.987022 2.1121001,2.1121001 0 0 0 2.98763,0 l 5.74158,-5.741575 5.74157,5.741575 a 2.1121001,2.1121001 0 0 0 2.98762,0 2.1121001,2.1121001 0 0 0 0,-2.987022 l -5.74218,-5.7421768 5.74218,-5.7415773 a 2.1121001,2.1121001 0 0 0 0,-2.9870207 2.1121001,2.1121001 0 0 0 -1.55177,-0.61648404 2.1121001,2.1121001 0 0 0 -1.43585,0.61648404 l -5.74157,5.7415767 -5.74158,-5.7415767 a 2.1121001,2.1121001 0 0 0 -1.53427,-0.61708798 z" /><path
         style="color:#000000;fill:#ff0000;stroke-width:0.976928;stroke-linecap:round;-inkscape-stroke:none"
         d="m 112.62051,25.830032 c -0.13911,2.502985 -0.63198,4.618021 -1.90539,6.077665 -1.89845,2.176074 -4.7321,3.128355 -6.62654,3.875302 4.73644,1.977223 8.70623,1.303851 11.07532,-0.627118 2.92493,-2.384008 3.46569,-5.875022 3.56331,-8.689829 l -3.54239,1.963469 z"
         id="path1351"
         sodipodi:nodetypes="cscsccc" /><path
         sodipodi:nodetypes="cscsccc"
         id="path1500"
         d="m 90.990587,15.173847 c 0.139102,-2.502994 0.63197,-4.618021 1.905386,-6.0776739 C 94.79442,6.9201067 97.628068,5.9678223 99.522518,5.2208782 94.786065,3.2436561 90.81628,3.917024 88.447188,5.8479878 85.522263,8.2320002 84.9815,11.723009 84.883877,14.537822 l 3.542396,-1.96347 z"
         style="color:#000000;fill:#ff0000;stroke-width:0.976928;stroke-linecap:round;-inkscape-stroke:none" /></g><g
       id="svg-icon-reconnect-stitch"
       transform="translate(85.656845,0.231024)"><rect
         y="42"
         x="41.5"
         height="40"
         width="40"
         id="rect1514-8"
         style="fill:none;stroke:#000000;stroke-width:0.1;stroke-linecap:butt;stroke-linejoin:bevel;stroke-miterlimit:4;stroke-dasharray:none;stroke-dashoffset:0" /><path
         id="path1516-7"
         style="stroke-width:0.123551;stroke-linejoin:bevel"
         d="m 49.482697,77.949747 a 3.4672425,3.4672425 0 0 1 -3.467244,3.467243 3.4672425,3.4672425 0 0 1 -3.467242,-3.467243 3.4672425,3.4672425 0 0 1 3.467242,-3.467242 3.4672425,3.4672425 0 0 1 3.467244,3.467242 z" /><path
         id="circle1518-1"
         style="fill:#ff0000;stroke-width:0.123551;stroke-linejoin:bevel"
         d="m 59.88442,75.334588 a 3.4672425,3.4672425 0 0 1 -3.467242,3.467242 3.4672425,3.4672425 0 0 1 -3.467243,-3.467242 3.4672425,3.4672425 0 0 1 3.467243,-3.467243 3.4672425,3.4672425 0 0 1 3.467242,3.467243 z" /><path
         id="circle1520-5"
         style="stroke-width:0.123551;stroke-linejoin:bevel"
         d="m 70.286149,75.334588 a 3.4672425,3.4672425 0 0 1 -3.467243,3.467242 3.4672425,3.4672425 0 0 1 -3.467242,-3.467242 3.4672425,3.4672425 0 0 1 3.467242,-3.467243 3.4672425,3.4672425 0 0 1 3.467243,3.467243 z" /><path
         id="circle1522-5"
         style="stroke-width:0.123551;stroke-linejoin:bevel"
         d="m 80.687878,77.949747 a 3.4672425,3.4672425 0 0 1 -3.467243,3.467243 3.4672425,3.4672425 0 0 1 -3.467242,-3.467243 3.4672425,3.4672425 0 0 1 3.467242,-3.467242 3.4672425,3.4672425 0 0 1 3.467243,3.467242 z" /><path
         id="path282"
         style="color:#000000;fill:#000000;stroke-width:1.23551;stroke-linecap:round;-inkscape-stroke:none"
         d="m 52.868535,42.658324 a 2.1621386,2.1621386 0 0 0 -2.162486,2.162486 2.1621386,2.1621386 0 0 0 2.162486,2.161847 h 5.356094 l -3.065915,19.657102 a 2.1621386,2.1621386 0 0 0 1.802389,2.470864 2.1621386,2.1621386 0 0 0 2.468312,-1.80239 l 3.172539,-20.325576 h 5.980513 a 2.1621386,2.1621386 0 0 0 2.162487,-2.161847 2.1621386,2.1621386 0 0 0 -2.162487,-2.162486 z" /><path
         sodipodi:nodetypes="cccc"
         id="path960"
         d="m 63.439077,60.893588 -1.408047,7.88253 8.923195,-3.941265 z"
         style="fill:#ff0000;stroke:none;stroke-width:0.452383px;stroke-linecap:butt;stroke-linejoin:miter;stroke-opacity:1" /><path
         style="fill:#ff0000;stroke:none;stroke-width:0.452383px;stroke-linecap:butt;stroke-linejoin:miter;stroke-opacity:1"
         d="m 52.03637,68.776118 1.408046,-7.88253 -8.923195,3.941264 z"
         id="path964"
         sodipodi:nodetypes="cccc" /></g><g
       id="svg-icon-insert-stitch"
       transform="translate(85.680373,0.231024)"><rect
         style="fill:none;stroke:#000000;stroke-width:0.1;stroke-linecap:butt;stroke-linejoin:bevel;stroke-miterlimit:4;stroke-dasharray:none;stroke-dashoffset:0"
         id="rect966"
         width="40"
         height="40"
         x="83.5"
         y="42" /><path
         d="m 101.24656,43.172502 v 3.881682 h -3.88167 v 4.657534 h 3.88167 v 3.88168 h 4.65754 v -3.88168 h 3.88168 v -4.657534 h -3.88168 v -3.881682 z"
         style="fill:#ff0000;stroke:none;stroke-width:5.75707;stroke-linecap:butt;stroke-linejoin:round;stroke-miterlimit:4;stroke-dasharray:none;stroke-dashoffset:0"
         id="path974" /><path
         id="path360"
         style="color:#000000;fill:#000000;stroke-width:1.23877;stroke-linecap:round;-inkscape-stroke:none"
         d="m 97.112214,66.35277 a 2.1678417,2.1678417 0 0 0 -0.518522,0.0621 l -10.580406,2.588764 a 2.1678417,2.1678417 0 0 0 -1.589494,2.620136 2.1678417,2.1678417 0 0 0 2.620135,1.592054 l 2.897322,-0.708647 1.699599,7.081984 a 2.1678417,2.1678417 0 0 0 2.615654,1.601657 2.1678417,2.1678417 0 0 0 1.601656,-2.613094 l -1.70472,-7.101189 3.470896,-0.84948 a 2.1678417,2.1678417 0 0 0 1.589494,-2.620136 2.1678417,2.1678417 0 0 0 -2.101614,-1.654149 z" /><path
         id="path416"
         style="color:#000000;fill:#ff0000;stroke-width:1.23877;stroke-linecap:round;-inkscape-stroke:none"
         d="m 110.03749,66.353353 a 2.1678417,2.1678417 0 0 0 -2.10161,1.651589 2.1678417,2.1678417 0 0 0 1.59205,2.622695 l 3.47025,0.848841 -1.70407,7.101828 a 2.1678417,2.1678417 0 0 0 1.60165,2.613094 2.1678417,2.1678417 0 0 0 2.61309,-1.601656 l 1.6996,-7.083905 2.89733,0.708647 a 2.1678417,2.1678417 0 0 0 2.62269,-1.589494 2.1678417,2.1678417 0 0 0 -1.59205,-2.620776 l -10.5804,-2.588768 a 2.1678417,2.1678417 0 0 0 -0.51853,-0.0621 z" /><path
         sodipodi:nodetypes="cccc"
         id="path995"
         d="m 98.280234,58.577336 h 10.426046 l -5.21303,9.733047 z"
         style="fill:#000000;stroke:none;stroke-width:0.44184px;stroke-linecap:butt;stroke-linejoin:miter;stroke-opacity:1" /></g><g
       id="svg-icon-clone-stitch"
       transform="translate(-80.89021,42.231024)"><rect
         style="fill:none;stroke:#000000;stroke-width:0.1;stroke-linecap:round;stroke-linejoin:bevel;stroke-miterlimit:4;stroke-dasharray:none"
         id="rect920"
         width="40"
         height="40"
         x="124"
         y="0" /><path
         id="path1461"
         style="color:#000000;fill:#ff0000;stroke-width:0.984282;stroke-linecap:round;-inkscape-stroke:none"
         d="m 148.59634,10.931651 c -1.64843,6.12e-4 -3.21306,0.378905 -4.61185,1.051871 a 12.973336,12.973336 0 0 1 2.75327,3.480128 c 0.58783,-0.174235 1.21184,-0.267819 1.85959,-0.268055 0.46072,-1.61e-4 0.90944,0.04814 1.3418,0.137842 a 7.8906632,7.8906632 0 0 1 -0.21261,-1.80873 7.8906632,7.8906632 0 0 1 0.40538,-2.482681 c -0.50196,-0.07266 -1.01432,-0.110559 -1.53558,-0.110375 z m 6.42414,10.038046 c 0.0231,0.223421 0.035,0.45063 0.0351,0.680562 9.1e-4,3.590461 -2.8647,6.454886 -6.45516,6.456191 -0.6485,2.28e-4 -1.27307,-0.09349 -1.86164,-0.267546 a 12.973336,12.973336 0 0 1 -2.75582,3.483687 c 1.4007,0.673656 2.96775,1.051453 4.61847,1.050855 5.89573,-0.0022 10.72009,-4.82948 10.7186,-10.725222 -3e-5,-0.140474 -0.004,-0.279912 -0.009,-0.41912 a 7.8906632,7.8906632 0 0 1 -1.69326,0.186162 7.8906632,7.8906632 0 0 1 -2.59714,-0.445569 z" /><path
         id="rect1465"
         style="fill:#ff0000;stroke:none;stroke-width:5.34572;stroke-linecap:butt;stroke-linejoin:round;stroke-miterlimit:4;stroke-dasharray:none;stroke-dashoffset:0"
         d="m 155.4552,7.7576795 v 3.6043325 h -3.60433 v 4.32475 h 3.60433 v 3.604332 h 4.32476 v -3.604332 h 3.60433 v -4.32475 h -3.60433 V 7.7576795 Z" /><path
         id="path1478"
         d="m 135.34228,10.931425 c -5.89576,0.0022 -10.71974,4.829088 -10.71826,10.724852 9.9e-4,5.895761 4.8279,10.719213 10.72367,10.717075 5.89575,-0.0022 10.71974,-4.829094 10.71826,-10.724853 -9.9e-4,-5.89576 -4.8279,-10.71921 -10.72367,-10.717074 z m 9.8e-4,4.264241 c 3.59047,-0.0013 6.45744,2.863904 6.45835,6.454381 9.1e-4,3.590473 -2.86463,6.455292 -6.4551,6.456597 -3.59047,0.0013 -6.45497,-2.861439 -6.45588,-6.451915 -9e-4,-3.590477 2.86216,-6.457759 6.45263,-6.459063 z"
         style="color:#000000;font-style:normal;font-variant:normal;font-weight:normal;font-stretch:normal;font-size:medium;line-height:normal;font-family:sans-serif;font-variant-ligatures:normal;font-variant-position:normal;font-variant-caps:normal;font-variant-numeric:normal;font-variant-alternates:normal;font-variant-east-asian:normal;font-feature-settings:normal;font-variation-settings:normal;text-indent:0;text-align:start;text-decoration:none;text-decoration-line:none;text-decoration-style:solid;text-decoration-color:#000000;letter-spacing:normal;word-spacing:normal;text-transform:none;writing-mode:lr-tb;direction:ltr;text-orientation:mixed;dominant-baseline:auto;baseline-shift:baseline;text-anchor:start;white-space:normal;shape-padding:0;shape-margin:0;inline-size:0;clip-rule:nonzero;display:inline;overflow:visible;visibility:visible;isolation:auto;mix-blend-mode:normal;color-interpolation:sRGB;color-interpolation-filters:linearRGB;solid-color:#000000;solid-opacity:1;vector-effect:none;fill:#000000;fill-opacity:1;fill-rule:nonzero;stroke:none;stroke-width:4.26556;stroke-linecap:round;stroke-linejoin:bevel;stroke-miterlimit:4;stroke-dasharray:none;stroke-dashoffset:0;stroke-opacity:1;color-rendering:auto;image-rendering:auto;shape-rendering:auto;text-rendering:auto;enable-background:accumulate;stop-color:#000000" /></g><g
       id="svg-icon-mode-view"
       transform="translate(-125.32936,44.22668)"><rect
         style="fill:none;stroke:#000000;stroke-width:0.1;stroke-linecap:butt;stroke-linejoin:bevel;stroke-miterlimit:4;stroke-dasharray:none;stroke-dashoffset:0"
         id="rect966-2"
         width="40"
         height="40"
         x="126.41562"
         y="42.288673" /><path
         style="color:#000000;fill:#000000;stroke:none;stroke-width:1.1462;-inkscape-stroke:none"
         d="m 146.26838,49.504779 c -8.3942,0.005 -16.0185,4.783016 -19.50871,12.226824 l -0.10425,0.225481 0.0975,0.227691 c 3.32816,7.798435 11.1407,12.882912 19.80342,12.887792 h 0.002 c 8.39919,-0.0051 16.02601,-4.787358 19.51322,-12.237875 l 0.10425,-0.225482 -0.0975,-0.22769 c -3.33265,-7.795307 -11.1483,-12.87617 -19.8099,-12.876741 z m 0,2.190159 c 8.10345,5.35e-4 14.32853,3.659386 17.54124,10.894377 -3.35111,6.907571 -9.3976,10.287499 -17.25105,10.293093 -8.10387,-0.0046 -14.32804,-3.666244 -17.53672,-10.903218 3.35377,-6.902875 9.39628,-10.279643 17.24653,-10.284252 z"
         id="path1221"
         sodipodi:nodetypes="scccsscccssccccc" /><g
         id="path1283"
         style="fill:none;stroke:#ff0000"
         transform="matrix(1.1607731,0,0,1.1318267,-23.251097,-7.9298992)"><path
           style="color:#000000;fill:#000000;stroke:none;-inkscape-stroke:none"
           d="m 146.16797,54.583984 c -4.09179,0 -7.45703,3.365244 -7.45703,7.457032 0,4.091788 3.36524,7.455078 7.45703,7.455078 4.09179,0 7.45508,-3.36329 7.45508,-7.455078 0,-4.091788 -3.36329,-7.457032 -7.45508,-7.457032 z m 0,4.388672 c 1.72075,0 3.06836,1.34761 3.06836,3.06836 0,1.72075 -1.34761,3.068359 -3.06836,3.068359 -1.72075,0 -3.06836,-1.347609 -3.06836,-3.068359 0,-1.72075 1.34761,-3.06836 3.06836,-3.06836 z"
           id="path1289" /></g></g><g
       id="svg-icon-mode-crochet"
       transform="translate(-124.7489,43.978515)"><path
         id="path1356"
         style="fill:#000000;stroke:none;stroke-width:3;stroke-dasharray:none"
         d="m 181.34038,47.49565 c -1.28782,-0.0098 -2.4577,0.261575 -3.40806,0.89607 -4.35382,2.906763 -3.36621,7.606481 -1.98541,12.656075 0.59353,2.170556 4.06765,8.647404 8.43773,8.437724 3.21582,-0.15429 -2.65,-7.387659 0.24804,-10.174569 2.51627,-2.419767 5.45284,0.240602 5.70767,3.722253 0.33053,4.515808 -3.39875,8.913126 1.73684,15.138096 l 2.37298,2.87631 h 11.17503 v -11.1771 L 195.79996,55.58818 c -2.54081,-3.693338 -9.40736,-8.054066 -14.45958,-8.09253 z" /><rect
         style="fill:none;stroke:#000000;stroke-width:0.1;stroke-linecap:butt;stroke-linejoin:bevel;stroke-miterlimit:4;stroke-dasharray:none;stroke-dashoffset:0"
         id="rect1362"
         width="40"
         height="40"
         x="167.85869"
         y="42.536839" /></g><g
       id="svg-icon-mode-edit"><rect
         style="fill:none;stroke:#000000;stroke-width:0.1;stroke-linecap:butt;stroke-linejoin:bevel;stroke-miterlimit:4;stroke-dasharray:none;stroke-dashoffset:0"
         id="rect966-2-5"
         width="40"
         height="40"
         x="85.133316"
         y="86.51535" /><path
         id="path1648"
         style="fill:#000000;stroke:none;stroke-width:3.20639;stroke-dasharray:none"
         d="M 94.814368 87.348157 A 8.8481884 8.8481884 0 0 0 85.966329 96.196195 A 8.8481884 8.8481884 0 0 0 94.814368 105.04475 A 8.8481884 8.8481884 0 0 0 103.66241 96.196195 A 8.8481884 8.8481884 0 0 0 94.814368 87.348157 z M 91.094698 94.487773 L 98.534037 94.487773 C 99.419475 94.487773 100.13239 95.24948 100.13239 96.196195 C 100.13239 97.142911 99.419475 97.905135 98.534037 97.905135 L 91.094698 97.905135 C 90.20926 97.905135 89.496346 97.142911 89.496346 96.196195 C 89.496346 95.24948 90.20926 94.487773 91.094698 94.487773 z " /><path
         id="circle1650"
         style="fill:#000000;stroke:none;stroke-width:3.20639;stroke-dasharray:none"
         d="M 115.45238 107.98617 A 8.8481884 8.8481884 0 0 0 106.60383 116.83421 A 8.8481884 8.8481884 0 0 0 115.45238 125.68225 A 8.8481884 8.8481884 0 0 0 124.30042 116.83421 A 8.8481884 8.8481884 0 0 0 115.45238 107.98617 z M 115.45238 111.51671 C 116.3991 111.51671 117.16132 112.2291 117.16132 113.11454 L 117.16132 115.12527 L 119.17154 115.12527 C 120.05698 115.12527 120.76989 115.8875 120.76989 116.83421 C 120.76989 117.78093 120.05698 118.54315 119.17154 118.54315 L 117.16132 118.54315 L 117.16132 120.55388 C 117.16132 121.43932 116.3991 122.15223 115.45238 122.15223 C 114.50568 122.15223 113.74344 121.43932 113.74344 120.55388 L 113.74344 118.54315 L 111.73271 118.54315 C 110.84729 118.54315 110.13436 117.78093 110.13436 116.83421 C 110.13436 115.8875 110.84729 115.12527 111.73271 115.12527 L 113.74344 115.12527 L 113.74344 113.11454 C 113.74344 112.2291 114.50568 111.51671 115.45238 111.51671 z " /><path
         id="circle1654"
         style="fill:#000000;stroke:none;stroke-width:3.20639;stroke-dasharray:none"
         d="M 94.814368 107.98617 A 8.8481884 8.8481884 0 0 0 85.966329 116.83421 A 8.8481884 8.8481884 0 0 0 94.814368 125.68225 A 8.8481884 8.8481884 0 0 0 103.66241 116.83421 A 8.8481884 8.8481884 0 0 0 94.814368 107.98617 z M 94.814368 111.20768 A 5.5201263 5.6263757 0 0 1 100.33444 116.83421 A 5.5201263 5.6263757 0 0 1 94.814368 122.46074 A 5.5201263 5.6263757 0 0 1 89.294291 116.83421 A 5.5201263 5.6263757 0 0 1 94.814368 111.20768 z " /><path
         id="rect1724"
         style="fill:#000000;stroke:none;stroke-width:3.0565;stroke-dasharray:none"
         d="M 13.780981 140.62491 C 13.474966 140.33293 13.082375 140.15755 12.652967 140.15755 C 11.671465 140.15755 10.881106 141.07216 10.881106 142.20785 L 10.881106 147.72258 L 5.3663754 147.72258 C 4.2306882 147.72258 3.3160736 148.51294 3.3160736 149.49444 C 3.3160736 150.47595 4.2306882 151.2663 5.3663754 151.2663 L 10.881106 151.2663 L 10.881106 156.78104 C 10.881106 157.91672 11.671099 158.83097 12.652602 158.83097 C 13.634105 158.83097 14.424829 157.91672 14.424829 156.78104 L 14.424829 151.2663 L 19.93956 151.2663 C 21.075247 151.2663 21.989496 150.47558 21.989496 149.49408 C 21.989496 148.51258 21.075247 147.72258 19.93956 147.72258 L 14.424829 147.72258 L 14.424829 142.20785 C 14.424829 141.56903 14.174428 141.00031 13.780981 140.62491 z "
         transform="rotate(-45)" /></g><rect
       style="fill:#000000;stroke:none;stroke-width:1.37822;stroke-dasharray:none"
       id="rect1518"
       width="16.776651"
       height="3.0541315"
       x="188.00047"
       y="99.253632" /><path
       id="rect1516"
       style="fill:#000000;stroke:none;stroke-width:2.13211;stroke-dasharray:none"
       d="m 189.99274,88.882414 c -0.72209,0 -1.30325,0.535939 -1.30325,1.201841 v 0.669165 3.395751 4.781722 h 2.60649 V 94.149171 90.75342 90.084255 c 0,-0.665902 -0.58116,-1.201841 -1.30324,-1.201841 z" /><path
       id="path1527"
       style="fill:#000000;stroke:none;stroke-width:2.13211;stroke-dasharray:none"
       d="m 193.19077,88.882414 c -0.72209,0 -1.30325,0.535939 -1.30325,1.201841 v 0.669165 3.395751 4.781722 h 2.60649 V 94.149171 90.75342 90.084255 c 0,-0.665902 -0.58116,-1.201841 -1.30324,-1.201841 z" /><path
       id="path1529"
       style="fill:#000000;stroke:none;stroke-width:2.13211;stroke-dasharray:none"
       d="m 196.3888,88.882414 c -0.72209,0 -1.30325,0.535939 -1.30325,1.201841 v 0.669165 3.395751 4.781722 h 2.60649 V 94.149171 90.75342 90.084255 c 0,-0.665902 -0.58116,-1.201841 -1.30324,-1.201841 z" /><path
       id="path1531"
       style="fill:#000000;stroke:none;stroke-width:2.13211;stroke-dasharray:none"
       d="m 199.58682,88.882414 c -0.72208,0 -1.30324,0.535939 -1.30324,1.201841 v 0.669165 3.395751 4.781722 h 2.60649 V 94.149171 90.75342 90.084255 c 0,-0.665902 -0.58116,-1.201841 -1.30325,-1.201841 z" /><path
       id="path1533"
       style="fill:#000000;stroke:none;stroke-width:2.13211;stroke-dasharray:none"
       d="m 202.78485,88.882414 c -0.72208,0 -1.30324,0.535939 -1.30324,1.201841 v 0.669165 3.395751 4.781722 h 2.60649 V 94.149171 90.75342 90.084255 c 0,-0.665902 -0.58116,-1.201841 -1.30325,-1.201841 z" /><path
       id="rect1556"
       style="stroke-width:2.27233"
       d="m 187.85895,102.63049 v 2.05421 c 0,0.85284 1.1516,1.74216 1.89081,2.12246 1.02641,0.52807 2.66349,0.21758 3.35582,0.78184 1.00476,0.81888 1.54701,2.33761 1.60118,3.6582 0.0712,1.73524 -0.93939,4.08069 -0.61652,5.30476 0.23233,0.88082 0.80539,1.56368 1.68945,1.56368 h 0.0577 1.01614 0.0572 c 0.88405,0 1.45711,-0.68286 1.68945,-1.56368 0.32286,-1.22407 -0.68771,-3.56952 -0.61653,-5.30476 0.0542,-1.32059 0.59643,-2.83932 1.60118,-3.6582 0.69234,-0.56426 2.32942,-0.25377 3.35583,-0.78184 0.73921,-0.3803 1.89081,-1.26962 1.89081,-2.12246 v -2.05421 h -7.97796 -1.01615 z" /></g></svg>
