<?xml version="1.0" encoding="UTF-8" standalone="no"?>
<svg
   sodipodi:docname="icon_sprites_src.svg"
   inkscape:version="1.2.2 (b0a84865, 2022-12-01)"
   id="svg8"
   version="1.1"
   viewBox="0 0 210 297"
   height="297mm"
   width="210mm"
   xmlns:inkscape="http://www.inkscape.org/namespaces/inkscape"
   xmlns:sodipodi="http://sodipodi.sourceforge.net/DTD/sodipodi-0.dtd"
   xmlns="http://www.w3.org/2000/svg"
   xmlns:svg="http://www.w3.org/2000/svg"
   xmlns:rdf="http://www.w3.org/1999/02/22-rdf-syntax-ns#"
   xmlns:cc="http://creativecommons.org/ns#"
   xmlns:dc="http://purl.org/dc/elements/1.1/">
  <defs
     id="defs2">
    <marker
       inkscape:stockid="TriangleInL"
       orient="auto"
       refY="0.0"
       refX="0.0"
       id="TriangleInL"
       style="overflow:visible"
       inkscape:isstock="true">
      <path
         id="path1120"
         d="M 5.77,0.0 L -2.88,5.0 L -2.88,-5.0 L 5.77,0.0 z "
         style="fill-rule:evenodd;stroke:#000000;stroke-width:1pt;stroke-opacity:1;fill:#000000;fill-opacity:1"
         transform="scale(-0.8)" />
    </marker>
    <marker
       inkscape:stockid="Arrow1Lend"
       orient="auto"
       refY="0.0"
       refX="0.0"
       id="Arrow1Lend"
       style="overflow:visible;"
       inkscape:isstock="true">
      <path
         id="path990"
         d="M 0.0,0.0 L 5.0,-5.0 L -12.5,0.0 L 5.0,5.0 L 0.0,0.0 z "
         style="fill-rule:evenodd;stroke:#000000;stroke-width:1pt;stroke-opacity:1;fill:#000000;fill-opacity:1"
         transform="scale(0.8) rotate(180) translate(12.5,0)" />
    </marker>
    <marker
       inkscape:stockid="Arrow1Lstart"
       orient="auto"
       refY="0.0"
       refX="0.0"
       id="marker1265"
       style="overflow:visible"
       inkscape:isstock="true">
      <path
         id="path1263"
         d="M 0.0,0.0 L 5.0,-5.0 L -12.5,0.0 L 5.0,5.0 L 0.0,0.0 z "
         style="fill-rule:evenodd;stroke:#000000;stroke-width:1pt;stroke-opacity:1;fill:#000000;fill-opacity:1"
         transform="scale(0.8) translate(12.5,0)" />
    </marker>
    <marker
       inkscape:stockid="Arrow1Lstart"
       orient="auto"
       refY="0.0"
       refX="0.0"
       id="Arrow1Lstart"
       style="overflow:visible"
       inkscape:isstock="true">
      <path
         id="path987"
         d="M 0.0,0.0 L 5.0,-5.0 L -12.5,0.0 L 5.0,5.0 L 0.0,0.0 z "
         style="fill-rule:evenodd;stroke:#000000;stroke-width:1pt;stroke-opacity:1;fill:#000000;fill-opacity:1"
         transform="scale(0.8) translate(12.5,0)" />
    </marker>
    <inkscape:path-effect
       effect="powerstroke"
       id="path-effect886"
       is_visible="true"
       lpeversion="1"
       offset_points="0.17443268,0.81406445 | 0.47166204,0.96658367 | 0.999526,3.2209122"
       sort_points="true"
       interpolator_type="CentripetalCatmullRom"
       interpolator_beta="0.2"
       start_linecap_type="zerowidth"
       linejoin_type="round"
       miter_limit="4"
       scale_width="1"
       end_linecap_type="zerowidth" />
  </defs>
  <sodipodi:namedview
     inkscape:window-maximized="0"
     inkscape:window-y="38"
     inkscape:window-x="0"
     inkscape:window-height="842"
     inkscape:window-width="1440"
     showgrid="false"
     inkscape:document-rotation="0"
     inkscape:current-layer="svg-icon-insert-stitch"
     inkscape:document-units="mm"
     inkscape:cy="242.66406"
     inkscape:cx="275.34942"
     inkscape:zoom="2.0192524"
     inkscape:pageshadow="2"
     inkscape:pageopacity="0.0"
     borderopacity="1.0"
     bordercolor="#666666"
     pagecolor="#ffffff"
     id="base"
     inkscape:object-nodes="false"
     inkscape:snap-others="true"
     inkscape:snap-nodes="true"
     inkscape:snap-global="false"
     inkscape:snap-bbox="true"
     inkscape:snap-bbox-midpoints="true"
     inkscape:snap-intersection-paths="true"
     inkscape:showpageshadow="2"
     inkscape:pagecheckerboard="0"
     inkscape:deskcolor="#d1d1d1" />
  <metadata
     id="metadata5">
    <rdf:RDF>
      <cc:Work
         rdf:about="">
        <dc:format>image/svg+xml</dc:format>
        <dc:type
           rdf:resource="http://purl.org/dc/dcmitype/StillImage" />
        <dc:title />
      </cc:Work>
    </rdf:RDF>
  </metadata>
  <g
     id="layer1"
     inkscape:groupmode="layer"
     inkscape:label="Warstwa 1">
    <g
       id="svg-icon-default">
      <rect
         style="fill:none;stroke-width:0.1;stroke-linecap:round;stroke-linejoin:bevel;stroke:#000000"
         id="rect10"
         width="40"
         height="40"
         x="0"
         y="0" />
      <path
         style="fill:#000000;stroke:#000000;stroke-width:0.264583px;stroke-linecap:butt;stroke-linejoin:miter;stroke-opacity:1"
         d="M 5.9658137,6.3371879 7.5250626,17.161283 18.812728,15.193257 17.01744,4.2459911 Z"
         id="path12" />
      <path
         id="path14"
         style="fill:#000000;stroke:none;stroke-width:0.1;stroke-linecap:round;stroke-linejoin:bevel"
         d="m 35.958215,10.228951 a 6.400939,6.400939 0 0 1 -6.400939,6.400939 6.400939,6.400939 0 0 1 -6.400939,-6.400939 6.400939,6.400939 0 0 1 6.400939,-6.4009385 6.400939,6.400939 0 0 1 6.400939,6.4009385 z" />
      <path
         style="fill:#000000;stroke:none;stroke-width:0.26458300000000001px;stroke-linecap:butt;stroke-linejoin:miter;stroke-opacity:1"
         d="M 11.6723,21.838497 2.6356807,33.573553 17.320188,36.46025 Z"
         id="path17" />
      <path
         id="path39"
         style="fill:#ff0000;stroke:none;stroke-width:0.1;stroke-linecap:round;stroke-linejoin:bevel"
         inkscape:transform-center-x="0.60115692"
         inkscape:transform-center-y="0.20129869"
         d="m 27.172613,35.707198 -1.220691,-5.392419 -5.134175,-2.051469 4.751281,-2.827296 0.364516,-5.516829 4.157144,3.645055 5.359458,-1.358119 -2.182025,5.080063 2.947811,4.677465 -5.505709,-0.505403 z" />
    </g>
    <g
       id="svg-icon-new-page">
      <rect
         style="fill:none;stroke:#000000;stroke-width:0.1;stroke-linecap:round;stroke-linejoin:bevel"
         id="rect49"
         width="40"
         height="40"
         x="41"
         y="0" />
      <path
         id="path51"
         style="fill:#000000;stroke:none;stroke-width:0.99999899999999997px;stroke-linecap:butt;stroke-linejoin:miter;stroke-opacity:1"
         d="M 291.64844 10.552734 L 165.9707 11.992188 L 166.93164 137.18945 L 265.74609 137.18945 L 291.16992 104.57227 L 291.64844 10.552734 z M 279.6582 20.626953 L 280.13672 97.376953 L 252.31445 96.416016 L 253.27539 123.75977 L 178.44336 123.2793 L 177.96289 23.503906 L 279.6582 20.626953 z M 220.65625 75.310547 L 188.99609 77.230469 L 188.51758 86.34375 L 222.57422 84.425781 L 220.65625 75.310547 z "
         transform="scale(0.26458333)" />
      <path
         style="fill:#000000;stroke:none;stroke-width:0.26458300000000001px;stroke-linecap:butt;stroke-linejoin:miter;stroke-opacity:1"
         d="M 49.751487,8.6303598 V 11.168701 L 71.200469,10.407198 70.946634,7.9957746 Z"
         id="path55" />
      <path
         style="fill:#ff0000;stroke:none;stroke-width:0.26458300000000001px;stroke-linecap:butt;stroke-linejoin:miter;stroke-opacity:1"
         d="M 70.185131,17.006885 49.878403,17.133803 50.132236,14.21471 69.931298,14.087793 Z"
         id="path57" />
    </g>
    <g
       id="svg-icon-delete-stitch">
      <rect
         style="fill:none;stroke:#000000;stroke-width:0.1;stroke-linecap:butt;stroke-linejoin:miter;stroke-miterlimit:4;stroke-dasharray:none"
         id="rect1443"
         width="40"
         height="40"
         x="166"
         y="0" />
      <path
         id="path1480"
         style="color:#000000;font-style:normal;font-variant:normal;font-weight:normal;font-stretch:normal;font-size:medium;line-height:normal;font-family:sans-serif;font-variant-ligatures:normal;font-variant-position:normal;font-variant-caps:normal;font-variant-numeric:normal;font-variant-alternates:normal;font-variant-east-asian:normal;font-feature-settings:normal;font-variation-settings:normal;text-indent:0;text-align:start;text-decoration:none;text-decoration-line:none;text-decoration-style:solid;text-decoration-color:#000000;letter-spacing:normal;word-spacing:normal;text-transform:none;writing-mode:lr-tb;direction:ltr;text-orientation:mixed;dominant-baseline:auto;baseline-shift:baseline;text-anchor:start;white-space:normal;shape-padding:0;shape-margin:0;inline-size:0;clip-rule:nonzero;display:inline;overflow:visible;visibility:visible;isolation:auto;mix-blend-mode:normal;color-interpolation:sRGB;color-interpolation-filters:linearRGB;solid-color:#000000;solid-opacity:1;vector-effect:none;fill:#000000;fill-opacity:1;fill-rule:nonzero;stroke:none;stroke-width:4.66274;stroke-linecap:round;stroke-linejoin:bevel;stroke-miterlimit:4;stroke-dasharray:none;stroke-dashoffset:0;stroke-opacity:1;color-rendering:auto;image-rendering:auto;shape-rendering:auto;text-rendering:auto;enable-background:accumulate;stop-color:#000000"
         d="m 185.47149,7.621713 c -6.44472,0.00239 -11.71807,5.278865 -11.71645,11.72359 0.001,6.444721 5.27757,11.71748 11.7223,11.715143 0.94166,-3.5e-4 1.85795,-0.114093 2.73678,-0.326829 a 8.6253798,8.6253798 0 0 1 -0.47692,-4.703601 c -0.70886,0.23648 -1.46834,0.366176 -2.26116,0.366464 -3.92478,0.0014 -7.05603,-3.127687 -7.05703,-7.052477 -9.8e-4,-3.924789 3.12899,-7.059498 7.05378,-7.060923 3.92478,-0.0014 7.05863,3.130936 7.05963,7.055725 3e-5,0.14441 -0.005,0.287345 -0.0129,0.429491 a 8.6253798,8.6253798 0 0 1 4.66851,-0.788807 C 196.99583,12.69859 191.79656,7.6194221 185.47154,7.621713 Z" />
      <path
         d="m 199.01033,21.421962 -2.78595,2.785957 -2.78596,-2.785954 -3.3428,3.342802 2.78595,2.785956 -2.78595,2.785957 3.3428,3.342808 2.78596,-2.785958 2.78595,2.785954 3.3428,-3.342803 -2.78595,-2.785955 2.78595,-2.785957 z"
         style="fill:#ff0000;stroke:none;stroke-width:5.84348;stroke-linecap:butt;stroke-linejoin:round;stroke-miterlimit:4;stroke-dasharray:none;stroke-dashoffset:0"
         id="path1498" />
    </g>
    <g
       id="svg-icon-change-stitch-type">
      <rect
         style="fill:none;stroke:#000000;stroke-width:0.1;stroke-linecap:round;stroke-linejoin:bevel"
         width="40"
         height="40"
         x="82"
         y="0"
         id="rect926" />
      <path
         style="color:#000000;font-style:normal;font-variant:normal;font-weight:normal;font-stretch:normal;font-size:medium;line-height:normal;font-family:sans-serif;font-variant-ligatures:normal;font-variant-position:normal;font-variant-caps:normal;font-variant-numeric:normal;font-variant-alternates:normal;font-variant-east-asian:normal;font-feature-settings:normal;font-variation-settings:normal;text-indent:0;text-align:start;text-decoration:none;text-decoration-line:none;text-decoration-style:solid;text-decoration-color:#000000;letter-spacing:normal;word-spacing:normal;text-transform:none;writing-mode:lr-tb;direction:ltr;text-orientation:mixed;dominant-baseline:auto;baseline-shift:baseline;text-anchor:start;white-space:normal;shape-padding:0;shape-margin:0;inline-size:0;clip-rule:nonzero;display:inline;overflow:visible;visibility:visible;isolation:auto;mix-blend-mode:normal;color-interpolation:sRGB;color-interpolation-filters:linearRGB;solid-color:#000000;solid-opacity:1;vector-effect:none;fill:#000000;fill-opacity:1;fill-rule:nonzero;stroke:none;stroke-width:4.04486;stroke-linecap:round;stroke-linejoin:bevel;stroke-miterlimit:4;stroke-dasharray:none;stroke-dashoffset:0;stroke-opacity:1;color-rendering:auto;image-rendering:auto;shape-rendering:auto;text-rendering:auto;enable-background:accumulate;stop-color:#000000"
         d="m 92.715075,19.717526 c -5.590703,0.002 -10.165084,4.579221 -10.163675,10.169924 0.0014,5.5907 4.578096,10.164576 10.168797,10.162549 5.590699,-0.002 10.165083,-4.579226 10.163673,-10.169924 -0.001,-5.5907 -4.578095,-10.164575 -10.168795,-10.162549 z m 0.001,4.043602 c 3.404697,-0.0012 6.123319,2.715717 6.124176,6.120414 8.57e-4,3.404695 -2.716395,6.121282 -6.121093,6.122519 -3.404698,0.0012 -6.120981,-2.713382 -6.12184,-6.118078 -8.57e-4,-3.404698 2.714058,-6.12362 6.118757,-6.124855 z"
         id="path983" />
      <path
         id="path977"
         style="color:#000000;font-style:normal;font-variant:normal;font-weight:normal;font-stretch:normal;font-size:medium;line-height:normal;font-family:sans-serif;font-variant-ligatures:normal;font-variant-position:normal;font-variant-caps:normal;font-variant-numeric:normal;font-variant-alternates:normal;font-variant-east-asian:normal;font-feature-settings:normal;font-variation-settings:normal;text-indent:0;text-align:start;text-decoration:none;text-decoration-line:none;text-decoration-style:solid;text-decoration-color:#000000;letter-spacing:normal;word-spacing:normal;text-transform:none;writing-mode:lr-tb;direction:ltr;text-orientation:mixed;dominant-baseline:auto;baseline-shift:baseline;text-anchor:start;white-space:normal;shape-padding:0;shape-margin:0;inline-size:0;clip-rule:nonzero;display:inline;overflow:visible;visibility:visible;isolation:auto;mix-blend-mode:normal;color-interpolation:sRGB;color-interpolation-filters:linearRGB;solid-color:#000000;solid-opacity:1;vector-effect:none;fill:#000000;fill-opacity:1;fill-rule:nonzero;stroke:none;stroke-width:4.32396;stroke-linecap:round;stroke-linejoin:miter;stroke-miterlimit:4;stroke-dasharray:none;stroke-dashoffset:0;stroke-opacity:1;color-rendering:auto;image-rendering:auto;shape-rendering:auto;text-rendering:auto;enable-background:accumulate;stop-color:#000000"
         d="m 105.03369,-0.0495745 a 2.1619816,2.1619816 0 0 0 -0.0179,6.182e-4 2.1619816,2.1619816 0 0 0 -1.46976,0.6310436 2.1619816,2.1619816 0 0 0 0,3.0575652 l 5.8778,5.8771764 -5.8778,5.8777901 a 2.1619816,2.1619816 0 0 0 0,3.057566 2.1619816,2.1619816 0 0 0 3.05818,0 l 5.87718,-5.877174 5.87717,5.877174 a 2.1619816,2.1619816 0 0 0 3.05818,0 2.1619816,2.1619816 0 0 0 0,-3.057566 l -5.87779,-5.8777901 5.87779,-5.8771764 a 2.1619816,2.1619816 0 0 0 0,-3.0575652 2.1619816,2.1619816 0 0 0 -1.58842,-0.6310436 2.1619816,2.1619816 0 0 0 -1.46976,0.6310436 l -5.87717,5.8771757 -5.87718,-5.8771757 a 2.1619816,2.1619816 0 0 0 -1.5705,-0.6316618 z" />
      <path
         style="color:#000000;fill:#ff0000;stroke-linecap:round;-inkscape-stroke:none"
         d="m 112.93431,25.896573 c -0.14239,2.562099 -0.6469,4.727085 -1.95039,6.221202 -1.94328,2.227466 -4.84385,3.202237 -6.78304,3.966825 4.84831,2.023919 8.91185,1.334644 11.33689,-0.641929 2.99401,-2.440311 3.54754,-6.013772 3.64747,-8.895057 l -3.62606,2.009841 z"
         id="path1351"
         sodipodi:nodetypes="cscsccc" />
      <path
         sodipodi:nodetypes="cscsccc"
         id="path1500"
         d="M 90.793556,14.988721 C 90.935943,12.426614 91.440451,10.261636 92.743942,8.7675104 94.687224,6.5400518 97.587795,5.5652772 99.526986,4.8006925 94.678672,2.7767743 90.615132,3.4660451 88.19009,5.4426126 85.196086,7.8829283 84.642552,11.456384 84.542624,14.337675 l 3.626057,-2.009841 z"
         style="color:#000000;fill:#ff0000;stroke-linecap:round;-inkscape-stroke:none" />
    </g>
    <g
       id="svg-icon-reconnect-stitch">
      <rect
         y="42"
         x="41.5"
         height="40"
         width="40"
         id="rect1514-8"
         style="fill:none;stroke:#000000;stroke-width:0.1;stroke-linecap:butt;stroke-linejoin:bevel;stroke-miterlimit:4;stroke-dasharray:none;stroke-dashoffset:0" />
      <path
         id="path1516-7"
         style="stroke-width:0.127371;stroke-linejoin:bevel"
         d="m 49.172989,78.375169 a 3.5744492,3.5744492 0 0 1 -3.57445,3.574449 3.5744492,3.5744492 0 0 1 -3.574449,-3.574449 3.5744492,3.5744492 0 0 1 3.574449,-3.574449 3.5744492,3.5744492 0 0 1 3.57445,3.574449 z" />
      <path
         id="circle1518-1"
         style="fill:#ff0000;stroke-width:0.127371;stroke-linejoin:bevel"
         d="m 59.896332,75.679149 a 3.5744492,3.5744492 0 0 1 -3.574449,3.574449 3.5744492,3.5744492 0 0 1 -3.574449,-3.574449 3.5744492,3.5744492 0 0 1 3.574449,-3.574449 3.5744492,3.5744492 0 0 1 3.574449,3.574449 z" />
      <path
         id="circle1520-5"
         style="stroke-width:0.127371;stroke-linejoin:bevel"
         d="m 70.619681,75.679149 a 3.5744492,3.5744492 0 0 1 -3.574449,3.574449 3.5744492,3.5744492 0 0 1 -3.574449,-3.574449 3.5744492,3.5744492 0 0 1 3.574449,-3.574449 3.5744492,3.5744492 0 0 1 3.574449,3.574449 z" />
      <path
         id="circle1522-5"
         style="stroke-width:0.127371;stroke-linejoin:bevel"
         d="m 81.34303,78.375169 a 3.5744492,3.5744492 0 0 1 -3.574449,3.574449 3.5744492,3.5744492 0 0 1 -3.574449,-3.574449 3.5744492,3.5744492 0 0 1 3.574449,-3.574449 3.5744492,3.5744492 0 0 1 3.574449,3.574449 z" />
      <path
         id="path282"
         style="color:#000000;fill:#000000;stroke-width:1.27371;stroke-linecap:round;-inkscape-stroke:none"
         d="m 52.663517,41.99254 a 2.2289916,2.2289916 0 0 0 -2.22935,2.229349 2.2289916,2.2289916 0 0 0 2.22935,2.228691 h 5.521704 l -3.160713,20.264897 a 2.2289916,2.2289916 0 0 0 1.858119,2.547263 2.2289916,2.2289916 0 0 0 2.544631,-1.85812 l 3.270634,-20.95404 h 6.16543 a 2.2289916,2.2289916 0 0 0 2.22935,-2.228691 2.2289916,2.2289916 0 0 0 -2.22935,-2.229349 z" />
      <path
         sodipodi:nodetypes="cccc"
         id="path960"
         d="m 63.560899,60.791635 -1.451584,8.126257 9.199099,-4.063128 z"
         style="fill:#ff0000;stroke:none;stroke-width:0.466371px;stroke-linecap:butt;stroke-linejoin:miter;stroke-opacity:1" />
      <path
         style="fill:#ff0000;stroke:none;stroke-width:0.466371px;stroke-linecap:butt;stroke-linejoin:miter;stroke-opacity:1"
         d="m 51.805621,68.917892 1.451583,-8.126257 -9.199099,4.063128 z"
         id="path964"
         sodipodi:nodetypes="cccc" />
    </g>
    <g
       id="svg-icon-insert-stitch">
      <rect
         style="fill:none;stroke:#000000;stroke-width:0.1;stroke-linecap:butt;stroke-linejoin:bevel;stroke-miterlimit:4;stroke-dasharray:none;stroke-dashoffset:0"
         id="rect966"
         width="40"
         height="40"
         x="83.5"
         y="42" />
      <path
         d="m 101.24656,42.114168 v 3.881682 h -3.88167 v 4.657534 h 3.88167 v 3.88168 h 4.65754 v -3.88168 h 3.88168 V 45.99585 h -3.88168 v -3.881682 z"
         style="fill:#ff0000;stroke:none;stroke-width:5.75707;stroke-linecap:butt;stroke-linejoin:round;stroke-miterlimit:4;stroke-dasharray:none;stroke-dashoffset:0"
         id="path974" />
      <path
         id="path360"
         style="color:#000000;fill:#000000;stroke-width:1.23877;stroke-linecap:round;-inkscape-stroke:none"
         d="m 97.112214,66.881937 a 2.1678417,2.1678417 0 0 0 -0.518522,0.0621 l -10.580406,2.588764 a 2.1678417,2.1678417 0 0 0 -1.589494,2.620136 2.1678417,2.1678417 0 0 0 2.620135,1.592054 l 2.897322,-0.708647 1.699599,7.081984 a 2.1678417,2.1678417 0 0 0 2.615654,1.601657 2.1678417,2.1678417 0 0 0 1.601656,-2.613094 l -1.70472,-7.101189 3.470896,-0.84948 a 2.1678417,2.1678417 0 0 0 1.589494,-2.620136 2.1678417,2.1678417 0 0 0 -2.101614,-1.654149 z" />
      <path
         id="path416"
         style="color:#000000;fill:#ff0000;stroke-width:1.23877;stroke-linecap:round;-inkscape-stroke:none"
         d="m 110.03749,66.451116 a 2.1678417,2.1678417 0 0 0 -2.10161,1.651589 2.1678417,2.1678417 0 0 0 1.59205,2.622695 l 3.47025,0.848841 -1.70407,7.101828 a 2.1678417,2.1678417 0 0 0 1.60165,2.613094 2.1678417,2.1678417 0 0 0 2.61309,-1.601656 l 1.6996,-7.083905 2.89733,0.708647 a 2.1678417,2.1678417 0 0 0 2.62269,-1.589494 2.1678417,2.1678417 0 0 0 -1.59205,-2.620776 l -10.5804,-2.588768 a 2.1678417,2.1678417 0 0 0 -0.51853,-0.0621 z" />
      <path
         sodipodi:nodetypes="cccc"
         id="path995"
         d="m 98.280234,58.577336 h 10.426046 l -5.21303,9.733047 z"
         style="fill:#000000;stroke:none;stroke-width:0.44184px;stroke-linecap:butt;stroke-linejoin:miter;stroke-opacity:1" />
    </g>
    <g
       id="svg-icon-clone-stitch">
      <rect
         style="fill:none;stroke:#000000;stroke-width:0.1;stroke-linecap:round;stroke-linejoin:bevel;stroke-miterlimit:4;stroke-dasharray:none"
         id="rect920"
         width="40"
         height="40"
         x="124"
         y="0" />
      <path
         id="path1461"
         style="color:#000000;fill:#ff0000;stroke-linecap:round;-inkscape-stroke:none"
         d="M 148.77283 10.720276 C 147.09808 10.720897 145.50846 11.105231 144.08733 11.788944 A 13.180508 13.180508 0 0 1 146.88457 15.324646 C 147.48179 15.14763 148.11577 15.05255 148.77386 15.052311 C 149.24194 15.052147 149.69782 15.101218 150.13709 15.192354 A 8.0166698 8.0166698 0 0 1 149.92108 13.35474 A 8.0166698 8.0166698 0 0 1 150.33294 10.832414 C 149.82296 10.758594 149.30242 10.720089 148.77283 10.720276 z M 155.29956 20.91862 C 155.32296 21.145609 155.33512 21.376447 155.33522 21.61005 C 155.33614 25.257848 152.42477 28.168014 148.77697 28.16934 C 148.11811 28.169572 147.48357 28.074354 146.88561 27.897522 A 13.180508 13.180508 0 0 1 144.08578 31.436841 C 145.50884 32.121254 147.10091 32.505084 148.778 32.504476 C 154.76787 32.502276 159.66927 27.597874 159.66777 21.607983 C 159.66774 21.465265 159.66347 21.323601 159.65847 21.18217 A 8.0166698 8.0166698 0 0 1 157.93816 21.371305 A 8.0166698 8.0166698 0 0 1 155.29956 20.91862 z " />
      <path
         id="rect1465"
         style="fill:#ff0000;stroke:none;stroke-width:5.43109;stroke-linecap:butt;stroke-linejoin:round;stroke-miterlimit:4;stroke-dasharray:none;stroke-dashoffset:0"
         d="m 155.74122,7.4956188 v 3.6618902 h -3.66188 v 4.393813 h 3.66188 v 3.66189 h 4.39382 v -3.66189 h 3.66189 v -4.393813 h -3.66189 V 7.4956188 Z" />
      <path
         id="path1478"
         d="m 135.30712,10.720046 c -5.98991,0.0022 -10.89093,4.906204 -10.88942,10.896118 0.001,5.989911 4.905,10.890389 10.89491,10.888217 5.9899,-0.0022 10.89093,-4.906211 10.88942,-10.896119 -0.001,-5.98991 -4.905,-10.890386 -10.89491,-10.888216 z m 0.001,4.332338 c 3.6478,-0.0013 6.56055,2.909637 6.56147,6.55745 9.3e-4,3.647811 -2.91036,6.558378 -6.55818,6.559703 -3.6478,0.0013 -6.55805,-2.907133 -6.55897,-6.554946 -9.2e-4,-3.647813 2.90786,-6.560883 6.55568,-6.562207 z"
         style="color:#000000;font-style:normal;font-variant:normal;font-weight:normal;font-stretch:normal;font-size:medium;line-height:normal;font-family:sans-serif;font-variant-ligatures:normal;font-variant-position:normal;font-variant-caps:normal;font-variant-numeric:normal;font-variant-alternates:normal;font-variant-east-asian:normal;font-feature-settings:normal;font-variation-settings:normal;text-indent:0;text-align:start;text-decoration:none;text-decoration-line:none;text-decoration-style:solid;text-decoration-color:#000000;letter-spacing:normal;word-spacing:normal;text-transform:none;writing-mode:lr-tb;direction:ltr;text-orientation:mixed;dominant-baseline:auto;baseline-shift:baseline;text-anchor:start;white-space:normal;shape-padding:0;shape-margin:0;inline-size:0;clip-rule:nonzero;display:inline;overflow:visible;visibility:visible;isolation:auto;mix-blend-mode:normal;color-interpolation:sRGB;color-interpolation-filters:linearRGB;solid-color:#000000;solid-opacity:1;vector-effect:none;fill:#000000;fill-opacity:1;fill-rule:nonzero;stroke:none;stroke-width:4.33368;stroke-linecap:round;stroke-linejoin:bevel;stroke-miterlimit:4;stroke-dasharray:none;stroke-dashoffset:0;stroke-opacity:1;color-rendering:auto;image-rendering:auto;shape-rendering:auto;text-rendering:auto;enable-background:accumulate;stop-color:#000000" />
    </g>
  </g>
</svg>
