<?xml version="1.0" encoding="UTF-8" standalone="no"?>
<svg
   xmlns:dc="http://purl.org/dc/elements/1.1/"
   xmlns:cc="http://creativecommons.org/ns#"
   xmlns:rdf="http://www.w3.org/1999/02/22-rdf-syntax-ns#"
   xmlns:svg="http://www.w3.org/2000/svg"
   xmlns="http://www.w3.org/2000/svg"
   id="svg8"
   version="1.1"
   viewBox="0 0 210 297"
   height="297mm"
   width="210mm">
  <defs
     id="defs2" />
  <metadata
     id="metadata5">
    <rdf:RDF>
      <cc:Work
         rdf:about="">
        <dc:format>image/svg+xml</dc:format>
        <dc:type
           rdf:resource="http://purl.org/dc/dcmitype/StillImage" />
        <dc:title></dc:title>
      </cc:Work>
    </rdf:RDF>
  </metadata>
  <g
     id="layer1">
    <g
       id="svg-icon-test1">
      <rect
         style="fill:none;stroke:#000000;stroke-width:0.1px"
         y="0"
         x="0"
         height="40"
         width="40"
         id="rect842" />
      <path
         id="path844"
         d="m 11.16,24.70 c -0.25,-6.67 2.01,-14.81 9.04,-13.04 6.20,1.5 10.89,5.022 8.56,11.67 z" />
      <path
         id="path846"
         d="m 20.852895,32.594679 3.336463,-5.453835 8.276996,5.261346 z"
         style="fill:#ff0000" />
    </g>
    <g
       id="svg-icon-test2">
      <rect
         id="rect887"
         width="40"
         height="40"
         x="41"
         y="0"
         style="fill:none;stroke:#000000;stroke-width:0.1px" />
      <path
         d="m 51.436367,10.791552 2.218825,10.791551 3.126523,-6.454759 7.463316,-1.109412 -3.933369,-4.3367921 0.605133,-5.0427813 -5.950481,-0.5042781 -6.757326,-2.4205349 0.70599,4.5385031 -3.025669,5.2444923 z"
         id="path893" />
      <rect
         id='xcv'
         x="1"
         y="1"
         width="2"
         height="3" />
      <path
         d="m 59.605674,34.190056 c 0.302567,-4.336791 -8.875294,-3.42909 0,-4.437647 8.875294,-1.008558 2.319679,-6.555616 7.463316,-3.025669 5.143635,3.529946 2.7231,4.034226 2.218822,6.152194 -0.504277,2.117966 -7.665026,-0.403423 -9.682138,1.311122 z"
         id="path895"
         style="fill:#ff0000" />
    </g>
  </g>
</svg>
